<svg xmlns="http://www.w3.org/2000/svg" fill="none" viewBox="0 0 142 36">
    <path fill="#06B6D4"
        d="m6.974 12.126 4.476-2.592-2.498-4.342h23.496L20.704 25.624l-2.499-4.35-4.475 2.6L20.704 36 41.4 0H0l6.974 12.126Z" />
    <path fill="#F4F4F5"
        d="M43.246 24.986 42.7 26h4.576l.182-.338 3.718-6.734-2.288-4.108-5.642 10.166Zm18.772 0-7.28-13.13-1.508-2.704-.156-.364h-.884l-.182.364-1.482 2.704-.182.338 2.288 4.134.052.104 1.69 3.042 3.432 6.188.182.338h4.576l-.546-1.014Zm16.26-.026-1.457-1.456c.13-.13.234-.234.338-.364a8.777 8.777 0 0 0 2.132-5.746c0-2.314-.91-4.524-2.548-6.162a8.673 8.673 0 0 0-6.188-2.574c-2.34 0-4.524.91-6.188 2.574a8.696 8.696 0 0 0-2.548 6.162c0 2.34.91 4.55 2.548 6.188.962.962 2.704 1.976 4.16 2.418h10.79l-1.04-1.04Zm-3.823-4.368a4.65 4.65 0 0 1-.728.702c-.26.234-.546.416-.858.572a5.11 5.11 0 0 1-1.04.416 5.181 5.181 0 0 1-1.274.156 5.049 5.049 0 0 1-5.044-5.044c0-2.756 2.262-5.018 5.044-5.018 2.782 0 5.044 2.262 5.044 5.018a5.12 5.12 0 0 1-1.144 3.198ZM93.758 8.84v9.412c0 2.21-1.768 4.056-3.926 4.108h-.312c-2.158-.052-3.926-1.924-3.926-4.108V8.84h-3.64v10.712c0 1.404.494 2.704 1.404 3.692.364.39.728.728 1.144 1.04A8.532 8.532 0 0 0 89.676 26a8.588 8.588 0 0 0 5.174-1.716c.416-.312.78-.65 1.118-1.014.936-.988 1.43-2.314 1.43-3.692V8.84h-3.64Zm6.274-.026V26h3.64V8.814h-3.64Zm22.21 16.146-4.914-8.06c.026 0 .052-.026.078-.052l.026-.026a.056.056 0 0 0 .052-.052c.052-.026.078-.052.13-.078.026-.026.078-.078.13-.104 0-.026.026-.026.026-.026l.104-.104c.104-.104.208-.182.338-.312 1.17-1.17 2.002-2.626 2.34-4.238a7.656 7.656 0 0 0 .208-1.872c0-.208 0-.416-.026-.598l-.026-.65h-14.43v3.64h10.218c-.234.416-.52.806-.858 1.118-.442.442-.936.78-1.508 1.04-.026 0-.026 0-.052.026a5.24 5.24 0 0 1-1.898.364h-5.902V26h3.64v-7.358h2.262c.052 0 .104-.026.156-.026H112.83l.026-.026h.182c.052 0 .104-.026.182-.026h.078c.052-.026.104-.026.156-.026.026 0 .052 0 .078-.026h.13l.312-.078 4.42 7.254.208.312h4.264l-.624-1.04Zm2.114-16.12v3.64h15.34V8.84h-15.34Zm3.64 9.828h10.166v-3.64h-10.166l-3.64-.026V26h15.34v-3.64h-11.7v-3.692Z" />
</svg>
